<?xml version="1.0" encoding="UTF-8"?><svg xmlns="http://www.w3.org/2000/svg" xmlns:xlink="http://www.w3.org/1999/xlink" stroke-dasharray="none" shape-rendering="auto" font-family="'Dialog'" width="756" text-rendering="auto" fill-opacity="1" contentScriptType="text/ecmascript" color-interpolation="auto" color-rendering="auto" preserveAspectRatio="xMidYMid meet" font-size="12" viewBox="0 0 756 756" fill="black" stroke="black" image-rendering="auto" stroke-miterlimit="10" zoomAndPan="magnify" version="1.0" stroke-linecap="square" stroke-linejoin="miter" contentStyleType="text/css" font-style="normal" height="756" stroke-width="1" stroke-dashoffset="0" font-weight="normal" stroke-opacity="1">
<!--Generated by the Batik Graphics2D SVG Generator-->
<defs id="genericDefs"/>
<g>
<defs id="defs1">
<clipPath clipPathUnits="userSpaceOnUse" id="clipPath1">
<path d="M369 9 L747 9 L747 747 L369 747 L369 9 Z"/>
</clipPath>
<clipPath clipPathUnits="userSpaceOnUse" id="clipPath2">
<path d="M379 14 L451 14 L451 31 L379 31 L379 14 Z"/>
</clipPath>
<clipPath clipPathUnits="userSpaceOnUse" id="clipPath3">
<path d="M369 30 L747 30 L747 747 L369 747 L369 30 Z"/>
</clipPath>
<clipPath clipPathUnits="userSpaceOnUse" id="clipPath4">
<path d="M559 554 L717 554 L717 727 L559 727 L559 554 Z"/>
</clipPath>
<clipPath clipPathUnits="userSpaceOnUse" id="clipPath5">
<path d="M569 559 L609 559 L609 576 L569 576 L569 559 Z"/>
</clipPath>
<clipPath clipPathUnits="userSpaceOnUse" id="clipPath6">
<path d="M559 575 L717 575 L717 727 L559 727 L559 575 Z"/>
</clipPath>
<clipPath clipPathUnits="userSpaceOnUse" id="clipPath7">
<path d="M582 599 L687 599 L687 701 L582 701 L582 599 Z"/>
</clipPath>
<clipPath clipPathUnits="userSpaceOnUse" id="clipPath8">
<path d="M585 602 L687 602 L687 619 L585 619 L585 602 Z"/>
</clipPath>
<clipPath clipPathUnits="userSpaceOnUse" id="clipPath9">
<path d="M587 620 L648 620 L648 637 L587 637 L587 620 Z"/>
</clipPath>
<clipPath clipPathUnits="userSpaceOnUse" id="clipPath10">
<path d="M582 618 L687 618 L687 701 L582 701 L582 618 Z"/>
</clipPath>
<clipPath clipPathUnits="userSpaceOnUse" id="clipPath11">
<path d="M389 554 L537 554 L537 722 L389 722 L389 554 Z"/>
</clipPath>
<clipPath clipPathUnits="userSpaceOnUse" id="clipPath12">
<path d="M399 559 L425 559 L425 576 L399 576 L399 559 Z"/>
</clipPath>
<clipPath clipPathUnits="userSpaceOnUse" id="clipPath13">
<path d="M389 575 L537 575 L537 722 L389 722 L389 575 Z"/>
</clipPath>
<clipPath clipPathUnits="userSpaceOnUse" id="clipPath14">
<path d="M414 599 L516 599 L516 701 L414 701 L414 599 Z"/>
</clipPath>
<clipPath clipPathUnits="userSpaceOnUse" id="clipPath15">
<path d="M429 602 L506 602 L506 619 L429 619 L429 602 Z"/>
</clipPath>
<clipPath clipPathUnits="userSpaceOnUse" id="clipPath16">
<path d="M419 620 L480 620 L480 637 L419 637 L419 620 Z"/>
</clipPath>
<clipPath clipPathUnits="userSpaceOnUse" id="clipPath17">
<path d="M414 618 L516 618 L516 701 L414 701 L414 618 Z"/>
</clipPath>
<clipPath clipPathUnits="userSpaceOnUse" id="clipPath18">
<path d="M414 70 L516 70 L516 160 L414 160 L414 70 Z"/>
</clipPath>
<clipPath clipPathUnits="userSpaceOnUse" id="clipPath19">
<path d="M447 73 L488 73 L488 90 L447 90 L447 73 Z"/>
</clipPath>
<clipPath clipPathUnits="userSpaceOnUse" id="clipPath20">
<path d="M419 91 L460 91 L460 108 L419 108 L419 91 Z"/>
</clipPath>
<clipPath clipPathUnits="userSpaceOnUse" id="clipPath21">
<path d="M414 89 L516 89 L516 160 L414 160 L414 89 Z"/>
</clipPath>
<clipPath clipPathUnits="userSpaceOnUse" id="clipPath22">
<path d="M584 424 L686 424 L686 526 L584 526 L584 424 Z"/>
</clipPath>
<clipPath clipPathUnits="userSpaceOnUse" id="clipPath23">
<path d="M604 466 L671 466 L671 483 L604 483 L604 466 Z"/>
</clipPath>
<clipPath clipPathUnits="userSpaceOnUse" id="clipPath24">
<path d="M414 254 L516 254 L516 356 L414 356 L414 254 Z"/>
</clipPath>
<clipPath clipPathUnits="userSpaceOnUse" id="clipPath25">
<path d="M424 296 L512 296 L512 313 L424 313 L424 296 Z"/>
</clipPath>
<clipPath clipPathUnits="userSpaceOnUse" id="clipPath26">
<path d="M199 14 L347 14 L347 197 L199 197 L199 14 Z"/>
</clipPath>
<clipPath clipPathUnits="userSpaceOnUse" id="clipPath27">
<path d="M209 19 L306 19 L306 36 L209 36 L209 19 Z"/>
</clipPath>
<clipPath clipPathUnits="userSpaceOnUse" id="clipPath28">
<path d="M199 35 L347 35 L347 197 L199 197 L199 35 Z"/>
</clipPath>
<clipPath clipPathUnits="userSpaceOnUse" id="clipPath29">
<path d="M224 64 L326 64 L326 166 L224 166 L224 64 Z"/>
</clipPath>
<clipPath clipPathUnits="userSpaceOnUse" id="clipPath30">
<path d="M229 106 L326 106 L326 123 L229 123 L229 106 Z"/>
</clipPath>
<clipPath clipPathUnits="userSpaceOnUse" id="clipPath31">
<path d="M199 209 L347 209 L347 747 L199 747 L199 209 Z"/>
</clipPath>
<clipPath clipPathUnits="userSpaceOnUse" id="clipPath32">
<path d="M209 214 L264 214 L264 231 L209 231 L209 214 Z"/>
</clipPath>
<clipPath clipPathUnits="userSpaceOnUse" id="clipPath33">
<path d="M199 230 L347 230 L347 747 L199 747 L199 230 Z"/>
</clipPath>
<clipPath clipPathUnits="userSpaceOnUse" id="clipPath34">
<path d="M224 254 L326 254 L326 356 L224 356 L224 254 Z"/>
</clipPath>
<clipPath clipPathUnits="userSpaceOnUse" id="clipPath35">
<path d="M258 296 L297 296 L297 313 L258 313 L258 296 Z"/>
</clipPath>
<clipPath clipPathUnits="userSpaceOnUse" id="clipPath36">
<path d="M224 424 L326 424 L326 526 L224 526 L224 424 Z"/>
</clipPath>
<clipPath clipPathUnits="userSpaceOnUse" id="clipPath37">
<path d="M228 466 L326 466 L326 483 L228 483 L228 466 Z"/>
</clipPath>
<clipPath clipPathUnits="userSpaceOnUse" id="clipPath38">
<path d="M224 599 L326 599 L326 701 L224 701 L224 599 Z"/>
</clipPath>
<clipPath clipPathUnits="userSpaceOnUse" id="clipPath39">
<path d="M250 641 L305 641 L305 658 L250 658 L250 641 Z"/>
</clipPath>
<clipPath clipPathUnits="userSpaceOnUse" id="clipPath40">
<path d="M9 14 L167 14 L167 747 L9 747 L9 14 Z"/>
</clipPath>
<clipPath clipPathUnits="userSpaceOnUse" id="clipPath41">
<path d="M19 19 L66 19 L66 36 L19 36 L19 19 Z"/>
</clipPath>
<clipPath clipPathUnits="userSpaceOnUse" id="clipPath42">
<path d="M9 35 L167 35 L167 747 L9 747 L9 35 Z"/>
</clipPath>
<clipPath clipPathUnits="userSpaceOnUse" id="clipPath43">
<path d="M34 599 L136 599 L136 701 L34 701 L34 599 Z"/>
</clipPath>
<clipPath clipPathUnits="userSpaceOnUse" id="clipPath44">
<path d="M73 641 L103 641 L103 658 L73 658 L73 641 Z"/>
</clipPath>
<clipPath clipPathUnits="userSpaceOnUse" id="clipPath45">
<path d="M-1 -1 L757 -1 L757 757 L-1 757 L-1 -1 Z"/>
</clipPath>
<clipPath clipPathUnits="userSpaceOnUse" id="clipPath46">
<path d="M519 619 L585 619 L585 636 L519 636 L519 619 Z"/>
</clipPath>
<clipPath clipPathUnits="userSpaceOnUse" id="clipPath47">
<path d="M570 617 L576 617 L576 634 L570 634 L570 617 Z"/>
</clipPath>
<clipPath clipPathUnits="userSpaceOnUse" id="clipPath48">
<path d="M522 657 L528 657 L528 674 L522 674 L522 657 Z"/>
</clipPath>
<clipPath clipPathUnits="userSpaceOnUse" id="clipPath49">
<path d="M514 638 L535 638 L535 653 L514 653 L514 638 Z"/>
</clipPath>
<clipPath clipPathUnits="userSpaceOnUse" id="clipPath50">
<path d="M579 84 L637 84 L637 101 L579 101 L579 84 Z"/>
</clipPath>
<clipPath clipPathUnits="userSpaceOnUse" id="clipPath51">
<path d="M577 121 L583 121 L583 138 L577 138 L577 121 Z"/>
</clipPath>
<clipPath clipPathUnits="userSpaceOnUse" id="clipPath52">
<path d="M652 352 L658 352 L658 369 L652 369 L652 352 Z"/>
</clipPath>
<clipPath clipPathUnits="userSpaceOnUse" id="clipPath53">
<path d="M514 104 L533 104 L533 115 L514 115 L514 104 Z"/>
</clipPath>
<clipPath clipPathUnits="userSpaceOnUse" id="clipPath54">
<path d="M626 524 L645 524 L645 537 L626 537 L626 524 Z"/>
</clipPath>
<clipPath clipPathUnits="userSpaceOnUse" id="clipPath55">
<path d="M474 199 L535 199 L535 216 L474 216 L474 199 Z"/>
</clipPath>
<clipPath clipPathUnits="userSpaceOnUse" id="clipPath56">
<path d="M442 165 L448 165 L448 182 L442 182 L442 165 Z"/>
</clipPath>
<clipPath clipPathUnits="userSpaceOnUse" id="clipPath57">
<path d="M482 233 L488 233 L488 250 L482 250 L482 233 Z"/>
</clipPath>
<clipPath clipPathUnits="userSpaceOnUse" id="clipPath58">
<path d="M458 236 L473 236 L473 257 L458 257 L458 236 Z"/>
</clipPath>
<clipPath clipPathUnits="userSpaceOnUse" id="clipPath59">
<path d="M240 382 L271 382 L271 399 L240 399 L240 382 Z"/>
</clipPath>
<clipPath clipPathUnits="userSpaceOnUse" id="clipPath60">
<path d="M252 358 L258 358 L258 375 L252 375 L252 358 Z"/>
</clipPath>
<clipPath clipPathUnits="userSpaceOnUse" id="clipPath61">
<path d="M285 407 L306 407 L306 424 L285 424 L285 407 Z"/>
</clipPath>
<clipPath clipPathUnits="userSpaceOnUse" id="clipPath62">
<path d="M268 406 L283 406 L283 427 L268 427 L268 406 Z"/>
</clipPath>
<clipPath clipPathUnits="userSpaceOnUse" id="clipPath63">
<path d="M226 555 L284 555 L284 572 L226 572 L226 555 Z"/>
</clipPath>
<clipPath clipPathUnits="userSpaceOnUse" id="clipPath64">
<path d="M252 528 L258 528 L258 545 L252 545 L252 528 Z"/>
</clipPath>
<clipPath clipPathUnits="userSpaceOnUse" id="clipPath65">
<path d="M270 524 L281 524 L281 543 L270 543 L270 524 Z"/>
</clipPath>
<clipPath clipPathUnits="userSpaceOnUse" id="clipPath66">
<path d="M339 87 L401 87 L401 104 L339 104 L339 87 Z"/>
</clipPath>
<clipPath clipPathUnits="userSpaceOnUse" id="clipPath67">
<path d="M398 87 L404 87 L404 104 L398 104 L398 87 Z"/>
</clipPath>
<clipPath clipPathUnits="userSpaceOnUse" id="clipPath68">
<path d="M335 127 L341 127 L341 144 L335 144 L335 127 Z"/>
</clipPath>
<clipPath clipPathUnits="userSpaceOnUse" id="clipPath69">
<path d="M324 108 L345 108 L345 123 L324 123 L324 108 Z"/>
</clipPath>
<clipPath clipPathUnits="userSpaceOnUse" id="clipPath70">
<path d="M343 622 L397 622 L397 639 L343 639 L343 622 Z"/>
</clipPath>
<clipPath clipPathUnits="userSpaceOnUse" id="clipPath71">
<path d="M398 622 L404 622 L404 639 L398 639 L398 622 Z"/>
</clipPath>
<clipPath clipPathUnits="userSpaceOnUse" id="clipPath72">
<path d="M324 644 L342 644 L342 657 L324 657 L324 644 Z"/>
</clipPath>
<clipPath clipPathUnits="userSpaceOnUse" id="clipPath73">
<path d="M161 622 L200 622 L200 639 L161 639 L161 622 Z"/>
</clipPath>
<clipPath clipPathUnits="userSpaceOnUse" id="clipPath74">
<path d="M208 622 L214 622 L214 639 L208 639 L208 622 Z"/>
</clipPath>
<clipPath clipPathUnits="userSpaceOnUse" id="clipPath75">
<path d="M145 662 L151 662 L151 679 L145 679 L145 662 Z"/>
</clipPath>
<clipPath clipPathUnits="userSpaceOnUse" id="clipPath76">
<path d="M134 643 L155 643 L155 658 L134 658 L134 643 Z"/>
</clipPath>
<clipPath clipPathUnits="userSpaceOnUse" id="clipPath77">
<path d="M404 296 L417 296 L417 315 L404 315 L404 296 Z"/>
</clipPath>
</defs>
<g fill="white" font-family="'Segoe UI'" stroke-linejoin="round" stroke="white" stroke-width="0" stroke-miterlimit="0">
<rect x="370" y="10" clip-path="url(#clipPath1)" width="90" height="21" stroke="none"/>
<rect x="370" y="31" clip-path="url(#clipPath1)" width="376" height="715" stroke="none"/>
</g>
<g stroke-width="1.1" font-family="'Segoe UI'" stroke-linecap="butt">
<rect x="370" y="10" clip-path="url(#clipPath1)" fill="none" width="90" height="21"/>
<text xml:space="preserve" x="380" y="28" clip-path="url(#clipPath2)" stroke="none">Accountancy</text>
<rect x="370" y="31" clip-path="url(#clipPath3)" fill="none" width="375" height="714" stroke="gray"/>
<rect x="560" y="555" clip-path="url(#clipPath4)" fill="white" width="58" height="21" stroke="none"/>
<rect x="560" y="576" clip-path="url(#clipPath4)" fill="white" width="156" height="150" stroke="none"/>
<rect x="560" y="555" clip-path="url(#clipPath4)" fill="none" width="58" height="21"/>
<text xml:space="preserve" x="570" y="573" clip-path="url(#clipPath5)" stroke="none">Payout</text>
<rect x="560" y="576" clip-path="url(#clipPath6)" fill="none" width="155" height="149" stroke="gray"/>
<rect x="584" y="601" clip-path="url(#clipPath7)" fill="white" width="101" height="98" stroke="none"/>
<rect x="583" y="600" clip-path="url(#clipPath7)" fill="white" width="103" height="100" stroke="none"/>
<text xml:space="preserve" x="586" y="616" clip-path="url(#clipPath8)" stroke="none">Exploitation Payout</text>
<text xml:space="preserve" x="588" y="634" clip-path="url(#clipPath9)" stroke="none"> + Amount</text>
<line clip-path="url(#clipPath10)" fill="none" x1="583" x2="686" y1="619" y2="619"/>
<rect x="583" y="600" clip-path="url(#clipPath7)" fill="none" width="102" height="99"/>
<line clip-path="url(#clipPath6)" fill="none" x1="560" x2="716" y1="576" y2="576" stroke="gray"/>
<rect x="560" y="555" clip-path="url(#clipPath4)" fill="none" width="58" height="21" stroke="gray" stroke-width="0.1"/>
<rect x="390" y="555" clip-path="url(#clipPath11)" fill="white" width="44" height="21" stroke="none" stroke-width="0.1"/>
<rect x="390" y="576" clip-path="url(#clipPath11)" fill="white" width="146" height="145" stroke="none" stroke-width="0.1"/>
<rect x="390" y="555" clip-path="url(#clipPath11)" fill="none" width="44" height="21"/>
<text xml:space="preserve" x="400" y="573" clip-path="url(#clipPath12)" stroke="none">Fees</text>
<rect x="390" y="576" clip-path="url(#clipPath13)" fill="none" width="145" height="144" stroke="gray"/>
<rect x="416" y="601" clip-path="url(#clipPath14)" fill="white" width="98" height="98" stroke="none"/>
<rect x="415" y="600" clip-path="url(#clipPath14)" fill="white" width="100" height="100" stroke="none"/>
<text xml:space="preserve" x="430" y="616" clip-path="url(#clipPath15)" stroke="none">Utilisation Fee</text>
<text xml:space="preserve" x="420" y="634" clip-path="url(#clipPath16)" stroke="none"> + Amount</text>
<line clip-path="url(#clipPath17)" fill="none" x1="415" x2="515" y1="619" y2="619"/>
<rect x="415" y="600" clip-path="url(#clipPath14)" fill="none" width="99" height="99"/>
<line clip-path="url(#clipPath13)" fill="none" x1="390" x2="536" y1="576" y2="576" stroke="gray"/>
<rect x="390" y="555" clip-path="url(#clipPath11)" fill="none" width="44" height="21" stroke="gray" stroke-width="0.1"/>
<rect x="416" y="72" clip-path="url(#clipPath18)" fill="white" width="98" height="86" stroke="none" stroke-width="0.1"/>
<rect x="415" y="71" clip-path="url(#clipPath18)" fill="white" width="100" height="88" stroke="none" stroke-width="0.1"/>
<text x="448" y="87" clip-path="url(#clipPath19)" stroke="none" stroke-width="0.1" xml:space="preserve">Invoice</text>
<text x="420" y="105" clip-path="url(#clipPath20)" stroke="none" stroke-width="0.1" xml:space="preserve"> + Date</text>
<line clip-path="url(#clipPath21)" fill="none" x1="415" x2="515" y1="90" y2="90"/>
<rect x="415" y="71" clip-path="url(#clipPath18)" fill="none" width="99" height="87"/>
<rect x="586" y="426" clip-path="url(#clipPath22)" fill="white" width="98" height="98" stroke="none"/>
<rect x="585" y="425" clip-path="url(#clipPath22)" fill="white" width="100" height="100" stroke="none"/>
<text xml:space="preserve" x="605" y="480" clip-path="url(#clipPath23)" stroke="none">Invoice Item</text>
<rect x="585" y="425" clip-path="url(#clipPath22)" fill="none" width="99" height="99"/>
<rect x="416" y="256" clip-path="url(#clipPath24)" fill="white" width="98" height="98" stroke="none"/>
<rect x="415" y="255" clip-path="url(#clipPath24)" fill="white" width="100" height="100" stroke="none"/>
<text xml:space="preserve" x="425" y="310" clip-path="url(#clipPath25)" stroke="none">Invoice Receiver</text>
<rect x="415" y="255" clip-path="url(#clipPath24)" fill="none" width="99" height="99"/>
<line clip-path="url(#clipPath3)" fill="none" x1="370" x2="746" y1="31" y2="31" stroke="gray"/>
<rect x="370" y="10" clip-path="url(#clipPath1)" fill="none" width="90" height="21" stroke="gray" stroke-width="0.1"/>
<rect x="200" y="15" clip-path="url(#clipPath26)" fill="white" width="115" height="21" stroke="none" stroke-width="0.1"/>
<rect x="200" y="36" clip-path="url(#clipPath26)" fill="white" width="146" height="160" stroke="none" stroke-width="0.1"/>
<rect x="200" y="15" clip-path="url(#clipPath26)" fill="none" width="115" height="21"/>
<text xml:space="preserve" x="210" y="33" clip-path="url(#clipPath27)" stroke="none">Collecting Society</text>
<rect x="200" y="36" clip-path="url(#clipPath28)" fill="none" width="145" height="159" stroke="gray"/>
<rect x="226" y="66" clip-path="url(#clipPath29)" fill="white" width="98" height="98" stroke="none"/>
<rect x="225" y="65" clip-path="url(#clipPath29)" fill="white" width="100" height="100" stroke="none"/>
<text xml:space="preserve" x="230" y="120" clip-path="url(#clipPath30)" stroke="none">Collecting Society</text>
<rect x="225" y="65" clip-path="url(#clipPath29)" fill="none" width="99" height="99"/>
<line clip-path="url(#clipPath28)" fill="none" x1="200" x2="346" y1="36" y2="36" stroke="gray"/>
<rect x="200" y="15" clip-path="url(#clipPath26)" fill="none" width="115" height="21" stroke="gray" stroke-width="0.1"/>
<rect x="200" y="210" clip-path="url(#clipPath31)" fill="white" width="73" height="21" stroke="none" stroke-width="0.1"/>
<rect x="200" y="231" clip-path="url(#clipPath31)" fill="white" width="146" height="515" stroke="none" stroke-width="0.1"/>
<rect x="200" y="210" clip-path="url(#clipPath31)" fill="none" width="73" height="21"/>
<text xml:space="preserve" x="210" y="228" clip-path="url(#clipPath32)" stroke="none">Utilisation</text>
<rect x="200" y="231" clip-path="url(#clipPath33)" fill="none" width="145" height="514" stroke="gray"/>
<rect x="226" y="256" clip-path="url(#clipPath34)" fill="white" width="98" height="98" stroke="none"/>
<rect x="225" y="255" clip-path="url(#clipPath34)" fill="white" width="100" height="100" stroke="none"/>
<text xml:space="preserve" x="259" y="310" clip-path="url(#clipPath35)" stroke="none">Utiliser</text>
<rect x="225" y="255" clip-path="url(#clipPath34)" fill="none" width="99" height="99"/>
<rect x="226" y="426" clip-path="url(#clipPath36)" fill="white" width="98" height="98" stroke="none"/>
<rect x="225" y="425" clip-path="url(#clipPath36)" fill="white" width="100" height="100" stroke="none"/>
<text xml:space="preserve" x="229" y="480" clip-path="url(#clipPath37)" stroke="none">Utilisation Context</text>
<rect x="225" y="425" clip-path="url(#clipPath36)" fill="none" width="99" height="99"/>
<rect x="226" y="601" clip-path="url(#clipPath38)" fill="white" width="98" height="98" stroke="none"/>
<rect x="225" y="600" clip-path="url(#clipPath38)" fill="white" width="100" height="100" stroke="none"/>
<text xml:space="preserve" x="251" y="655" clip-path="url(#clipPath39)" stroke="none">Utilisation</text>
<rect x="225" y="600" clip-path="url(#clipPath38)" fill="none" width="99" height="99"/>
<line clip-path="url(#clipPath33)" fill="none" x1="200" x2="346" y1="231" y2="231" stroke="gray"/>
<rect x="200" y="210" clip-path="url(#clipPath31)" fill="none" width="73" height="21" stroke="gray" stroke-width="0.1"/>
<rect x="10" y="15" clip-path="url(#clipPath40)" fill="white" width="65" height="21" stroke="none" stroke-width="0.1"/>
<rect x="10" y="36" clip-path="url(#clipPath40)" fill="white" width="156" height="710" stroke="none" stroke-width="0.1"/>
<rect x="10" y="15" clip-path="url(#clipPath40)" fill="none" width="65" height="21"/>
<text xml:space="preserve" x="20" y="33" clip-path="url(#clipPath41)" stroke="none">Creation</text>
<rect x="10" y="36" clip-path="url(#clipPath42)" fill="none" width="155" height="709" stroke="gray"/>
<rect x="36" y="601" clip-path="url(#clipPath43)" fill="white" width="98" height="98" stroke="none"/>
<rect x="35" y="600" clip-path="url(#clipPath43)" fill="white" width="100" height="100" stroke="none"/>
<text xml:space="preserve" x="74" y="655" clip-path="url(#clipPath44)" stroke="none">Work</text>
<rect x="35" y="600" clip-path="url(#clipPath43)" fill="none" width="99" height="99"/>
<line clip-path="url(#clipPath42)" fill="none" x1="10" x2="166" y1="36" y2="36" stroke="gray"/>
<rect x="10" y="15" clip-path="url(#clipPath40)" fill="none" width="65" height="21" stroke="gray" stroke-width="0.1"/>
<line clip-path="url(#clipPath45)" fill="none" text-rendering="optimizeLegibility" x1="583" x2="515" y1="645" y2="645"/>
<text x="520" y="633" clip-path="url(#clipPath46)" text-rendering="optimizeLegibility" stroke="none" xml:space="preserve">comes from</text>
<text x="571" y="631" clip-path="url(#clipPath47)" text-rendering="optimizeLegibility" stroke="none" xml:space="preserve"> </text>
<text x="523" y="671" clip-path="url(#clipPath48)" text-rendering="optimizeLegibility" stroke="none" xml:space="preserve"> </text>
<polygon text-rendering="optimizeLegibility" clip-path="url(#clipPath49)" points=" 515 644 517 642 519 642 521 644 521 645 533 639 521 645 533 651 521 645 521 646 519 648 517 648 515 646" stroke="none"/>
<polygon fill="none" text-rendering="optimizeLegibility" clip-path="url(#clipPath49)" points=" 515 644 517 642 519 642 521 644 521 645 533 639 521 645 533 651 521 645 521 646 519 648 517 648 515 646"/>
<line clip-path="url(#clipPath45)" fill="none" text-rendering="optimizeLegibility" x1="515" x2="635" y1="109" y2="109"/>
<line clip-path="url(#clipPath45)" fill="none" text-rendering="optimizeLegibility" x1="635" x2="635" y1="109" y2="425"/>
<text x="580" y="98" clip-path="url(#clipPath50)" text-rendering="optimizeLegibility" stroke="none" xml:space="preserve">consists of</text>
<text x="578" y="135" clip-path="url(#clipPath51)" text-rendering="optimizeLegibility" stroke="none" xml:space="preserve"> </text>
<text x="653" y="366" clip-path="url(#clipPath52)" text-rendering="optimizeLegibility" stroke="none" xml:space="preserve"> </text>
<polygon text-rendering="optimizeLegibility" clip-path="url(#clipPath53)" points=" 515 109 523 105 531 109 523 113" stroke="none"/>
<polygon fill="none" text-rendering="optimizeLegibility" clip-path="url(#clipPath53)" points=" 515 109 523 105 531 109 523 113"/>
<line clip-path="url(#clipPath45)" fill="none" text-rendering="optimizeLegibility" x1="635" x2="635" y1="600" y2="525"/>
<polygon fill="white" text-rendering="optimizeLegibility" clip-path="url(#clipPath54)" points=" 635 525 643 535 627 535" stroke="none"/>
<polygon fill="none" text-rendering="optimizeLegibility" clip-path="url(#clipPath54)" points=" 635 525 643 535 627 535"/>
<line clip-path="url(#clipPath45)" fill="none" text-rendering="optimizeLegibility" x1="465" x2="465" y1="159" y2="255"/>
<text x="475" y="213" clip-path="url(#clipPath55)" text-rendering="optimizeLegibility" stroke="none" xml:space="preserve">is issued to</text>
<text x="443" y="179" clip-path="url(#clipPath56)" text-rendering="optimizeLegibility" stroke="none" xml:space="preserve"> </text>
<text x="483" y="247" clip-path="url(#clipPath57)" text-rendering="optimizeLegibility" stroke="none" xml:space="preserve"> </text>
<polygon text-rendering="optimizeLegibility" clip-path="url(#clipPath58)" points=" 464 255 462 253 462 251 464 249 465 249 459 237 465 249 471 237 465 249 466 249 468 251 468 253 466 255" stroke="none"/>
<polygon fill="none" text-rendering="optimizeLegibility" clip-path="url(#clipPath58)" points=" 464 255 462 253 462 251 464 249 465 249 459 237 465 249 471 237 465 249 466 249 468 251 468 253 466 255"/>
<line clip-path="url(#clipPath45)" fill="none" text-rendering="optimizeLegibility" x1="275" x2="275" y1="355" y2="425"/>
<text x="241" y="396" clip-path="url(#clipPath59)" text-rendering="optimizeLegibility" stroke="none" xml:space="preserve">hosts</text>
<text x="253" y="372" clip-path="url(#clipPath60)" text-rendering="optimizeLegibility" stroke="none" xml:space="preserve"> </text>
<text x="286" y="421" clip-path="url(#clipPath61)" text-rendering="optimizeLegibility" stroke="none" xml:space="preserve">  [*]</text>
<polygon text-rendering="optimizeLegibility" clip-path="url(#clipPath62)" points=" 274 425 272 423 272 421 274 419 275 419 269 407 275 419 281 407 275 419 276 419 278 421 278 423 276 425" stroke="none"/>
<polygon fill="none" text-rendering="optimizeLegibility" clip-path="url(#clipPath62)" points=" 274 425 272 423 272 421 274 419 275 419 269 407 275 419 281 407 275 419 276 419 278 421 278 423 276 425"/>
<line clip-path="url(#clipPath45)" fill="none" text-rendering="optimizeLegibility" x1="275" x2="275" y1="525" y2="600"/>
<text x="227" y="569" clip-path="url(#clipPath63)" text-rendering="optimizeLegibility" stroke="none" xml:space="preserve">consists of</text>
<text x="253" y="542" clip-path="url(#clipPath64)" text-rendering="optimizeLegibility" stroke="none" xml:space="preserve"> </text>
<polygon fill="white" text-rendering="optimizeLegibility" clip-path="url(#clipPath65)" points=" 275 525 279 533 275 541 271 533" stroke="none"/>
<polygon fill="none" text-rendering="optimizeLegibility" clip-path="url(#clipPath65)" points=" 275 525 279 533 275 541 271 533"/>
<line clip-path="url(#clipPath45)" fill="none" text-rendering="optimizeLegibility" x1="583" x2="515" y1="645" y2="645"/>
<text x="520" y="633" clip-path="url(#clipPath46)" text-rendering="optimizeLegibility" stroke="none" xml:space="preserve">comes from</text>
<text x="571" y="631" clip-path="url(#clipPath47)" text-rendering="optimizeLegibility" stroke="none" xml:space="preserve"> </text>
<text x="523" y="671" clip-path="url(#clipPath48)" text-rendering="optimizeLegibility" stroke="none" xml:space="preserve"> </text>
<polygon text-rendering="optimizeLegibility" clip-path="url(#clipPath49)" points=" 515 644 517 642 519 642 521 644 521 645 533 639 521 645 533 651 521 645 521 646 519 648 517 648 515 646" stroke="none"/>
<polygon fill="none" text-rendering="optimizeLegibility" clip-path="url(#clipPath49)" points=" 515 644 517 642 519 642 521 644 521 645 533 639 521 645 533 651 521 645 521 646 519 648 517 648 515 646"/>
<line clip-path="url(#clipPath45)" fill="none" text-rendering="optimizeLegibility" x1="635" x2="635" y1="600" y2="525"/>
<polygon fill="white" text-rendering="optimizeLegibility" clip-path="url(#clipPath54)" points=" 635 525 643 535 627 535" stroke="none"/>
<polygon fill="none" text-rendering="optimizeLegibility" clip-path="url(#clipPath54)" points=" 635 525 643 535 627 535"/>
<line clip-path="url(#clipPath45)" fill="none" text-rendering="optimizeLegibility" x1="515" x2="635" y1="109" y2="109"/>
<line clip-path="url(#clipPath45)" fill="none" text-rendering="optimizeLegibility" x1="635" x2="635" y1="109" y2="425"/>
<text x="580" y="98" clip-path="url(#clipPath50)" text-rendering="optimizeLegibility" stroke="none" xml:space="preserve">consists of</text>
<text x="578" y="135" clip-path="url(#clipPath51)" text-rendering="optimizeLegibility" stroke="none" xml:space="preserve"> </text>
<text x="653" y="366" clip-path="url(#clipPath52)" text-rendering="optimizeLegibility" stroke="none" xml:space="preserve"> </text>
<polygon text-rendering="optimizeLegibility" clip-path="url(#clipPath53)" points=" 515 109 523 105 531 109 523 113" stroke="none"/>
<polygon fill="none" text-rendering="optimizeLegibility" clip-path="url(#clipPath53)" points=" 515 109 523 105 531 109 523 113"/>
<line clip-path="url(#clipPath45)" fill="none" text-rendering="optimizeLegibility" x1="415" x2="325" y1="115" y2="115"/>
<text x="340" y="101" clip-path="url(#clipPath66)" text-rendering="optimizeLegibility" stroke="none" xml:space="preserve">is issued by</text>
<text x="399" y="101" clip-path="url(#clipPath67)" text-rendering="optimizeLegibility" stroke="none" xml:space="preserve"> </text>
<text x="336" y="141" clip-path="url(#clipPath68)" text-rendering="optimizeLegibility" stroke="none" xml:space="preserve"> </text>
<polygon text-rendering="optimizeLegibility" clip-path="url(#clipPath69)" points=" 325 114 327 112 329 112 331 114 331 115 343 109 331 115 343 121 331 115 331 116 329 118 327 118 325 116" stroke="none"/>
<polygon fill="none" text-rendering="optimizeLegibility" clip-path="url(#clipPath69)" points=" 325 114 327 112 329 112 331 114 331 115 343 109 331 115 343 121 331 115 331 116 329 118 327 118 325 116"/>
<line clip-path="url(#clipPath45)" fill="none" text-rendering="optimizeLegibility" x1="465" x2="465" y1="159" y2="255"/>
<text x="475" y="213" clip-path="url(#clipPath55)" text-rendering="optimizeLegibility" stroke="none" xml:space="preserve">is issued to</text>
<text x="443" y="179" clip-path="url(#clipPath56)" text-rendering="optimizeLegibility" stroke="none" xml:space="preserve"> </text>
<text x="483" y="247" clip-path="url(#clipPath57)" text-rendering="optimizeLegibility" stroke="none" xml:space="preserve"> </text>
<polygon text-rendering="optimizeLegibility" clip-path="url(#clipPath58)" points=" 464 255 462 253 462 251 464 249 465 249 459 237 465 249 471 237 465 249 466 249 468 251 468 253 466 255" stroke="none"/>
<polygon fill="none" text-rendering="optimizeLegibility" clip-path="url(#clipPath58)" points=" 464 255 462 253 462 251 464 249 465 249 459 237 465 249 471 237 465 249 466 249 468 251 468 253 466 255"/>
<line clip-path="url(#clipPath45)" fill="none" text-rendering="optimizeLegibility" x1="415" x2="325" y1="650" y2="650"/>
<text x="344" y="636" clip-path="url(#clipPath70)" text-rendering="optimizeLegibility" stroke="none" xml:space="preserve">applies to</text>
<text x="399" y="636" clip-path="url(#clipPath71)" text-rendering="optimizeLegibility" stroke="none" xml:space="preserve"> </text>
<line clip-path="url(#clipPath72)" fill="none" text-rendering="optimizeLegibility" x1="340" x2="325" y1="645" y2="650"/>
<line clip-path="url(#clipPath72)" fill="none" text-rendering="optimizeLegibility" x1="325" x2="340" y1="650" y2="655"/>
<line clip-path="url(#clipPath45)" fill="none" text-rendering="optimizeLegibility" x1="275" x2="275" y1="355" y2="425"/>
<text x="241" y="396" clip-path="url(#clipPath59)" text-rendering="optimizeLegibility" stroke="none" xml:space="preserve">hosts</text>
<text x="253" y="372" clip-path="url(#clipPath60)" text-rendering="optimizeLegibility" stroke="none" xml:space="preserve"> </text>
<text x="286" y="421" clip-path="url(#clipPath61)" text-rendering="optimizeLegibility" stroke="none" xml:space="preserve">  [*]</text>
<polygon text-rendering="optimizeLegibility" clip-path="url(#clipPath62)" points=" 274 425 272 423 272 421 274 419 275 419 269 407 275 419 281 407 275 419 276 419 278 421 278 423 276 425" stroke="none"/>
<polygon fill="none" text-rendering="optimizeLegibility" clip-path="url(#clipPath62)" points=" 274 425 272 423 272 421 274 419 275 419 269 407 275 419 281 407 275 419 276 419 278 421 278 423 276 425"/>
<line clip-path="url(#clipPath45)" fill="none" text-rendering="optimizeLegibility" x1="275" x2="275" y1="525" y2="600"/>
<text x="227" y="569" clip-path="url(#clipPath63)" text-rendering="optimizeLegibility" stroke="none" xml:space="preserve">consists of</text>
<text x="253" y="542" clip-path="url(#clipPath64)" text-rendering="optimizeLegibility" stroke="none" xml:space="preserve"> </text>
<polygon fill="white" text-rendering="optimizeLegibility" clip-path="url(#clipPath65)" points=" 275 525 279 533 275 541 271 533" stroke="none"/>
<polygon fill="none" text-rendering="optimizeLegibility" clip-path="url(#clipPath65)" points=" 275 525 279 533 275 541 271 533"/>
<line clip-path="url(#clipPath45)" fill="none" text-rendering="optimizeLegibility" x1="225" x2="135" y1="650" y2="650"/>
<text x="162" y="636" clip-path="url(#clipPath73)" text-rendering="optimizeLegibility" stroke="none" xml:space="preserve">utilises</text>
<text x="209" y="636" clip-path="url(#clipPath74)" text-rendering="optimizeLegibility" stroke="none" xml:space="preserve"> </text>
<text x="146" y="676" clip-path="url(#clipPath75)" text-rendering="optimizeLegibility" stroke="none" xml:space="preserve"> </text>
<polygon text-rendering="optimizeLegibility" clip-path="url(#clipPath76)" points=" 135 649 137 647 139 647 141 649 141 650 153 644 141 650 153 656 141 650 141 651 139 653 137 653 135 651" stroke="none"/>
<polygon fill="none" text-rendering="optimizeLegibility" clip-path="url(#clipPath76)" points=" 135 649 137 647 139 647 141 649 141 650 153 644 141 650 153 656 141 650 141 651 139 653 137 653 135 651"/>
<line clip-path="url(#clipPath45)" fill="none" text-rendering="optimizeLegibility" x1="325" x2="415" y1="305" y2="305"/>
<polygon fill="white" text-rendering="optimizeLegibility" clip-path="url(#clipPath77)" points=" 415 305 405 313 405 297" stroke="none"/>
<polygon fill="none" text-rendering="optimizeLegibility" clip-path="url(#clipPath77)" points=" 415 305 405 313 405 297"/>
</g>
</g>
</svg>
